<?xml version="1.0" standalone="no"?>
<!DOCTYPE svg PUBLIC "-//W3C//DTD SVG 20010904//EN"
 "http://www.w3.org/TR/2001/REC-SVG-20010904/DTD/svg10.dtd">
<svg version="1.0" xmlns="http://www.w3.org/2000/svg"
 width="1920.000000pt" height="1920.000000pt" viewBox="0 0 1920.000000 1920.000000"
 preserveAspectRatio="xMidYMid meet">

<g transform="translate(0.000000,1920.000000) scale(0.100000,-0.100000)"
fill="#333" stroke="none">
<path d="M3783 14980 c-67 -5 -202 -19 -300 -30 -206 -23 -248 -40 -291 -120
-48 -92 -11 -214 79 -261 50 -25 84 -26 259 -5 470 55 896 45 1184 -28 216
-55 394 -155 469 -263 27 -40 38 -73 552 -1833 258 -883 888 -3035 1065 -3640
65 -223 173 -589 239 -815 66 -225 206 -705 311 -1065 201 -690 224 -754 305
-847 59 -67 164 -137 255 -171 l75 -27 2510 -3 c1765 -2 2521 0 2547 8 78 22
137 102 138 185 0 57 -37 124 -88 160 l-44 30 -2507 5 -2507 5 -41 27 c-22 15
-50 42 -61 60 -17 28 -272 878 -272 907 0 8 799 12 2588 13 l2587 3 80 27
c154 53 286 152 368 276 25 37 201 396 392 797 192 402 589 1234 883 1850 294
616 550 1162 568 1213 55 158 55 304 0 464 -69 197 -232 360 -435 432 l-86 31
-4219 5 c-3736 4 -4220 7 -4227 20 -5 8 -138 456 -295 995 -213 729 -295 998
-322 1049 -20 39 -67 102 -108 146 -193 205 -482 329 -899 385 -143 19 -573
28 -752 15z m10809 -3028 c136 -67 208 -206 179 -344 -7 -32 -188 -423 -448
-968 -240 -503 -535 -1122 -656 -1375 -120 -253 -323 -678 -450 -945 -126
-267 -243 -503 -258 -526 -35 -51 -87 -91 -150 -115 -48 -18 -139 -19 -2658
-19 -2477 0 -2610 1 -2615 18 -7 24 -590 2066 -935 3276 -159 561 -288 1023
-285 1028 3 4 1851 7 4107 6 l4102 -3 67 -33z"/>
<path d="M7545 11482 c-194 -67 -316 -243 -303 -436 4 -53 91 -372 347 -1269
188 -659 349 -1214 358 -1234 23 -57 81 -143 127 -192 61 -64 177 -137 270
-168 l81 -28 1950 0 c1856 0 1953 1 2014 18 130 37 254 117 335 217 54 68 41
41 551 1110 648 1360 673 1412 684 1455 18 66 13 188 -9 253 -45 128 -152 233
-277 272 -65 20 -88 20 -3072 20 -2825 -1 -3009 -2 -3056 -18z m6023 -384 c7
-7 12 -21 12 -32 0 -12 -56 -138 -124 -281 l-124 -260 -2775 -3 -2774 -2 -77
268 c-42 147 -76 274 -76 283 0 8 5 20 12 27 17 17 5909 17 5926 0z m-435
-975 c2 -5 -59 -140 -136 -300 l-140 -293 -2396 0 -2396 0 -83 293 c-45 160
-82 295 -82 300 0 9 5228 9 5233 0z m-482 -1025 c-72 -165 -217 -448 -244
-476 -18 -19 -50 -43 -72 -55 l-40 -22 -1890 -3 c-2087 -2 -1951 -7 -2031 61
-22 19 -49 57 -62 83 -17 40 -132 427 -132 448 0 3 1010 6 2245 6 l2244 0 -18
-42z"/>
<path d="M7760 5750 c-309 -43 -566 -276 -646 -585 -25 -100 -24 -275 4 -378
118 -436 579 -680 1005 -532 212 73 401 263 472 472 68 202 57 399 -34 588
-79 165 -195 283 -356 360 -142 68 -299 95 -445 75z m171 -390 c173 -33 301
-174 316 -348 22 -269 -244 -477 -500 -391 -162 54 -263 197 -261 369 1 102
30 174 101 250 95 103 214 144 344 120z"/>
<path d="M12882 5750 c-186 -26 -374 -131 -493 -274 -59 -71 -131 -214 -154
-305 -39 -153 -27 -323 34 -475 41 -103 90 -176 176 -262 230 -232 583 -289
881 -143 376 184 535 635 358 1017 -139 303 -474 487 -802 442z m169 -390
c156 -30 279 -151 309 -307 30 -150 -39 -309 -168 -391 -98 -63 -216 -78 -324
-41 -112 38 -179 97 -230 205 -114 244 63 529 338 543 12 1 46 -4 75 -9z"/>
</g>
</svg>
