<?xml version="1.0" standalone="no"?>
<!DOCTYPE svg PUBLIC "-//W3C//DTD SVG 20010904//EN"
 "http://www.w3.org/TR/2001/REC-SVG-20010904/DTD/svg10.dtd">
<svg version="1.0" xmlns="http://www.w3.org/2000/svg"
 width="1920.000000pt" height="1920.000000pt" viewBox="0 0 1920.000000 1920.000000"
 preserveAspectRatio="xMidYMid meet">

<g transform="translate(0.000000,1920.000000) scale(0.100000,-0.100000)"
fill="#333" stroke="none">
<path d="M8085 15723 c-247 -44 -484 -171 -670 -357 -198 -199 -315 -429 -360
-706 -12 -75 -15 -188 -15 -527 l0 -433 -47 0 c-156 -1 -469 -26 -653 -51
-555 -77 -1076 -239 -1580 -490 -821 -410 -1510 -1024 -2012 -1794 -118 -180
-186 -300 -294 -515 -373 -746 -550 -1541 -531 -2388 8 -335 31 -553 93 -877
59 -305 179 -699 299 -985 320 -758 824 -1437 1456 -1963 746 -620 1671 -1023
2619 -1141 425 -53 988 -47 1402 15 769 114 1540 424 2179 876 l124 88 3050 5
c2831 5 3055 7 3118 23 120 30 218 67 326 122 360 185 610 532 676 937 23 140
22 1283 -1 1419 -30 177 -101 358 -197 502 l-46 68 53 82 c71 110 130 244 169
385 l31 117 4 650 c4 728 2 758 -65 955 -40 118 -81 203 -146 304 l-45 69 55
84 c70 107 126 236 166 383 l32 115 3 650 c4 725 1 757 -63 952 -39 117 -84
210 -148 306 l-46 68 49 75 c64 98 113 201 149 311 56 174 56 172 56 908 l0
680 -27 106 c-62 244 -156 418 -320 594 -180 192 -443 334 -705 380 -127 22
-8015 21 -8138 -2z m7991 -1018 c65 -19 116 -63 148 -127 l26 -52 0 -565 c0
-371 -4 -579 -11 -605 -13 -48 -78 -119 -133 -146 l-42 -20 -3406 0 -3406 0
-112 50 c-288 131 -597 238 -883 309 l-192 48 0 459 0 459 28 57 c33 67 84
113 147 133 70 21 7763 22 7836 0z m-8586 -2060 c485 -56 943 -190 1360 -399
196 -98 288 -152 465 -270 663 -445 1182 -1071 1493 -1801 75 -177 112 -280
168 -475 120 -417 171 -848 153 -1300 -59 -1497 -953 -2854 -2314 -3511 -389
-188 -784 -308 -1215 -368 -224 -32 -354 -40 -620 -36 -407 6 -724 54 -1115
170 -1425 422 -2536 1633 -2834 3091 -63 308 -75 443 -76 829 0 309 3 369 23
515 64 472 188 883 387 1285 401 811 1028 1445 1835 1854 462 234 953 377
1440 420 69 6 143 13 165 15 90 9 559 -4 685 -19z m8588 -501 c67 -22 115 -63
146 -126 l26 -52 0 -565 c0 -382 -4 -579 -11 -606 -15 -54 -100 -139 -154
-154 -29 -8 -654 -11 -2197 -11 l-2156 0 -101 203 c-117 237 -245 454 -390
662 -144 207 -238 323 -492 608 l-51 57 2665 0 c2435 0 2669 -1 2715 -16z
m-16 -2554 c65 -18 130 -70 160 -129 l28 -53 0 -574 c0 -471 -3 -581 -14 -608
-21 -50 -85 -117 -136 -140 l-45 -21 -1959 -3 -1959 -2 7 82 c15 199 18 591 7
749 -17 230 -62 580 -88 687 l-5 22 1983 0 c1320 0 1996 -4 2021 -10z m14
-2565 c65 -19 116 -63 148 -127 l26 -52 0 -565 c0 -371 -4 -579 -11 -605 -13
-48 -82 -123 -134 -147 -38 -18 -139 -19 -2502 -19 -1355 0 -2463 2 -2463 5 0
3 28 45 63 93 286 396 557 922 693 1345 l28 87 2051 0 c1777 0 2058 -2 2101
-15z"/>
<path d="M6923 11635 c-178 -39 -330 -188 -378 -370 -11 -44 -15 -113 -15
-267 l0 -207 -37 -6 c-279 -41 -442 -98 -628 -220 -327 -215 -541 -544 -601
-928 -20 -122 -14 -373 10 -482 59 -264 174 -480 357 -669 202 -210 456 -349
738 -403 71 -14 183 -18 636 -22 547 -6 550 -6 601 -29 58 -26 133 -98 163
-158 88 -171 13 -378 -168 -463 l-56 -26 -950 -5 c-935 -5 -951 -6 -1005 -26
-164 -63 -282 -191 -325 -355 -19 -69 -19 -189 0 -258 42 -161 157 -289 317
-354 51 -21 71 -22 498 -27 l445 -5 5 -230 c5 -203 8 -236 27 -282 31 -78 67
-134 115 -182 272 -273 704 -181 851 182 19 46 22 78 27 287 l5 235 69 7 c152
15 298 59 450 135 383 192 635 516 732 943 23 103 29 366 10 480 -85 521 -449
945 -939 1095 -188 57 -190 57 -792 64 -542 6 -561 7 -605 27 -142 67 -229
228 -200 372 24 115 91 200 199 251 l56 26 950 5 c850 5 954 7 991 21 92 38
151 74 205 128 155 155 194 404 94 601 -34 66 -132 170 -194 203 -131 72 -122
70 -598 75 l-432 3 -3 227 c-4 260 -11 293 -92 405 -121 170 -325 247 -533
202z"/>
<path d="M3865 9078 c-27 -5 -82 -24 -120 -43 -181 -86 -285 -252 -285 -452 0
-154 45 -268 146 -368 61 -61 116 -96 200 -126 50 -18 88 -22 246 -26 219 -6
293 4 393 52 183 89 287 254 288 460 1 241 -159 444 -395 500 -72 17 -389 19
-473 3z"/>
<path d="M9738 9074 c-200 -48 -357 -219 -389 -423 -34 -221 83 -439 286 -536
94 -45 159 -55 349 -55 256 0 370 36 484 150 108 108 155 219 155 365 -1 204
-107 374 -288 460 -38 18 -94 38 -123 44 -76 16 -403 13 -474 -5z"/>
</g>
</svg>
