<?xml version="1.0" standalone="no"?>
<!DOCTYPE svg PUBLIC "-//W3C//DTD SVG 20010904//EN"
 "http://www.w3.org/TR/2001/REC-SVG-20010904/DTD/svg10.dtd">
<svg version="1.0" xmlns="http://www.w3.org/2000/svg"
 width="980.000000pt" height="980.000000pt" viewBox="0 0 980.000000 980.000000"
 preserveAspectRatio="xMidYMid meet">

<g transform="translate(0.000000,980.000000) scale(0.100000,-0.100000)"
fill="#333" stroke="none">
<path d="M4710 6793 c-507 -52 -913 -327 -1133 -769 -85 -170 -147 -392 -167
-602 -5 -53 -10 -102 -10 -108 0 -6 -26 -14 -59 -17 -113 -10 -197 -75 -255
-197 l-31 -65 3 -205 c4 -303 14 -396 51 -475 36 -79 112 -156 176 -180 33
-13 64 -16 120 -13 69 5 75 3 75 -14 0 -87 113 -134 178 -74 41 36 43 49 32
163 -18 188 -40 670 -40 886 0 239 -6 268 -65 293 -23 9 -49 12 -71 8 -18 -3
-34 -3 -34 1 0 29 46 222 71 297 59 178 181 381 307 511 152 158 387 298 602
360 206 60 483 77 690 43 621 -101 1068 -553 1164 -1179 l6 -38 -33 6 c-49 10
-100 -15 -120 -58 -14 -29 -17 -69 -17 -239 0 -226 -13 -552 -32 -788 -18
-218 -17 -224 16 -259 16 -17 38 -31 50 -33 24 -3 24 -16 -1 -142 -34 -175
-110 -354 -213 -506 -66 -95 -196 -232 -273 -287 l-45 -33 -25 34 c-14 18 -41
40 -59 49 -34 16 -221 37 -334 37 -153 0 -258 -124 -206 -243 29 -66 101 -113
182 -119 83 -6 306 14 345 31 46 20 93 71 101 110 4 16 22 36 47 53 124 81
280 239 380 387 60 90 147 268 181 374 26 81 63 261 68 331 l3 40 61 -3 c112
-4 191 34 258 126 64 88 75 140 87 413 13 283 10 320 -30 405 -55 119 -142
185 -253 193 -36 3 -58 9 -58 16 0 67 -27 255 -50 351 -100 417 -313 726 -645
932 -97 60 -274 130 -408 162 -144 34 -428 51 -587 34z"/>
<path d="M4335 5405 c-72 -19 -134 -54 -198 -114 -49 -45 -117 -132 -117 -147
0 -10 64 -54 78 -54 4 0 15 12 24 28 30 50 132 143 188 170 73 36 200 39 270
6 100 -46 145 -120 145 -239 0 -72 -4 -87 -35 -145 -40 -77 -200 -240 -502
-514 -192 -174 -198 -180 -198 -218 l0 -38 435 0 435 0 0 50 0 50 -340 0
c-187 0 -340 4 -340 8 0 4 71 72 158 149 435 392 506 486 505 674 0 61 -6 88
-28 138 -36 78 -112 151 -193 181 -74 29 -205 35 -287 15z"/>
<path d="M5438 5323 c-41 -49 -89 -108 -108 -133 -19 -25 -39 -50 -45 -56 -5
-6 -91 -111 -190 -234 -99 -123 -208 -258 -242 -299 -35 -42 -63 -79 -63 -83
0 -4 9 -23 21 -42 l21 -36 334 0 334 0 0 -150 0 -150 50 0 50 0 0 150 0 150
105 0 105 0 0 50 0 49 -102 3 -103 3 -3 433 -2 432 -44 0 c-44 0 -46 -2 -118
-87z m57 -770 c-3 -10 -68 -13 -280 -13 -151 0 -275 4 -275 8 0 4 40 55 88
112 48 58 129 156 180 218 50 62 136 165 189 228 l98 116 3 -328 c1 -181 0
-335 -3 -341z"/>
</g>
</svg>
