<?xml version="1.0" standalone="no"?>
<!DOCTYPE svg PUBLIC "-//W3C//DTD SVG 20010904//EN"
 "http://www.w3.org/TR/2001/REC-SVG-20010904/DTD/svg10.dtd">
<svg version="1.0" xmlns="http://www.w3.org/2000/svg"
 width="1920.000000pt" height="1920.000000pt" viewBox="0 0 1920.000000 1920.000000"
 preserveAspectRatio="xMidYMid meet">

<g transform="translate(0.000000,1920.000000) scale(0.100000,-0.100000)"
fill="#000000" stroke="none">
<path d="M9340 13585 c-475 -65 -937 -331 -1225 -705 -377 -490 -495 -1122
-319 -1707 151 -499 508 -919 979 -1149 440 -215 951 -248 1420 -93 578 191
1033 659 1209 1242 118 393 104 831 -41 1211 -246 648 -828 1110 -1511 1201
-131 18 -383 18 -512 0z"/>
<path d="M8670 9719 c-941 -247 -1743 -839 -2248 -1659 -281 -457 -449 -930
-528 -1490 -12 -86 -18 -223 -21 -542 l-5 -428 3732 0 3732 0 -5 428 c-5 450
-10 514 -62 788 -171 900 -688 1720 -1438 2282 -365 275 -838 502 -1285 617
l-102 26 -132 -45 c-256 -87 -440 -118 -708 -118 -268 0 -481 36 -724 123 -60
21 -114 39 -120 38 -6 0 -45 -9 -86 -20z"/>
</g>
</svg>
