<?xml version="1.0" standalone="no"?>
<!DOCTYPE svg PUBLIC "-//W3C//DTD SVG 20010904//EN"
 "http://www.w3.org/TR/2001/REC-SVG-20010904/DTD/svg10.dtd">
<svg version="1.0" xmlns="http://www.w3.org/2000/svg"
 width="1920.000000pt" height="1920.000000pt" viewBox="0 0 1920.000000 1920.000000"
 preserveAspectRatio="xMidYMid meet">

<g transform="translate(0.000000,1920.000000) scale(0.100000,-0.100000)"
fill="#333" stroke="none">
<path d="M11045 15353 c-310 -24 -514 -55 -755 -114 -1611 -395 -2832 -1726
-3089 -3369 -38 -240 -46 -351 -45 -645 0 -213 5 -330 18 -440 89 -753 340
-1388 789 -1998 44 -59 78 -110 76 -112 -2 -3 -253 -254 -556 -558 l-553 -553
-99 -12 c-110 -13 -202 -42 -288 -93 -44 -25 -358 -333 -1281 -1254 -673 -671
-1246 -1248 -1273 -1281 -267 -333 -161 -821 221 -1014 240 -121 527 -81 740
103 136 117 2456 2450 2494 2507 20 30 50 89 66 131 29 75 57 240 44 260 -4 6
243 261 556 574 l563 563 123 -92 c349 -259 767 -475 1174 -605 678 -217 1367
-257 2066 -120 1259 246 2339 1077 2903 2234 266 544 401 1096 418 1705 31
1124 -395 2195 -1189 2990 -702 704 -1609 1116 -2613 1190 -128 9 -413 11
-510 3z m490 -843 c557 -48 1072 -227 1533 -533 637 -423 1108 -1061 1321
-1789 79 -272 119 -526 128 -818 60 -1985 -1653 -3555 -3626 -3324 -396 46
-747 154 -1116 342 -469 240 -893 617 -1194 1062 -569 841 -712 1884 -391
2850 161 486 410 889 775 1256 239 240 468 413 751 568 541 297 1207 438 1819
386z"/>
<path d="M13690 11591 c-85 -18 -153 -84 -165 -164 -68 -436 -278 -888 -596
-1287 -109 -137 -385 -413 -524 -524 -146 -117 -339 -244 -509 -336 -174 -94
-191 -115 -191 -231 0 -71 2 -80 31 -116 46 -57 98 -83 167 -83 51 0 71 7 180
63 888 461 1609 1364 1811 2268 49 220 46 276 -21 350 -24 27 -51 44 -86 54
-28 8 -53 14 -56 14 -3 -1 -22 -4 -41 -8z"/>
</g>
</svg>
