<?xml version="1.0" standalone="no"?>
<!DOCTYPE svg PUBLIC "-//W3C//DTD SVG 20010904//EN"
 "http://www.w3.org/TR/2001/REC-SVG-20010904/DTD/svg10.dtd">
<svg version="1.0" xmlns="http://www.w3.org/2000/svg"
 width="7678.000000pt" height="7678.000000pt" viewBox="0 0 7678.000000 7678.000000"
 preserveAspectRatio="xMidYMid meet">

<g transform="translate(0.000000,7678.000000) scale(0.100000,-0.100000)"
fill="#333" stroke="none">
<path d="M60725 64664 c-142 -20 -192 -30 -275 -56 -114 -36 -279 -120 -375
-190 -43 -31 -2546 -2527 -6472 -6452 l-6403 -6401 0 5116 c0 5637 5 5186 -61
5383 -155 465 -572 801 -1057 856 -70 8 -5065 10 -17592 8 -16823 -3 -17498
-4 -17570 -21 -257 -62 -448 -162 -620 -323 -188 -177 -314 -403 -372 -665
l-23 -104 0 -24280 c0 -20328 2 -24293 13 -24360 78 -461 408 -847 850 -995
48 -16 128 -37 177 -47 87 -17 726 -18 17610 -18 16884 0 17523 1 17610 18
271 55 472 162 666 356 191 190 299 393 350 654 19 96 19 355 19 12560 l0
12462 96 49 c183 93 358 247 464 408 45 69 67 92 125 130 39 25 108 80 155
121 47 41 4239 4230 9316 9309 8120 8122 9238 9244 9291 9323 97 144 146 253
189 420 36 137 44 366 19 516 -32 195 -115 394 -226 542 -52 69 -4846 5271
-4922 5340 -178 163 -395 274 -630 322 -77 15 -294 27 -352 19z m2494 -3858
c1304 -1413 2371 -2572 2371 -2575 0 -3 -4141 -4147 -9203 -9209 l-9202 -9202
-2480 2480 -2480 2480 9305 9305 c5117 5117 9308 9301 9311 9297 4 -4 1074
-1163 2378 -2576z m-17289 -4833 l0 -5678 -1396 -1396 -1395 -1395 -77 76
c-80 78 -164 130 -272 167 -53 17 -467 18 -13815 21 -12136 2 -13769 0 -13839
-13 -324 -61 -551 -376 -506 -705 13 -95 27 -137 76 -231 72 -137 222 -255
389 -306 58 -17 512 -18 13544 -20 l13485 -3 -450 -453 c-369 -371 -459 -467
-504 -538 -42 -64 -67 -92 -103 -115 -75 -45 -206 -157 -271 -231 -64 -73
-148 -197 -189 -278 -47 -94 -78 -200 -296 -1015 l-219 -815 -12473 -5
c-11494 -5 -12478 -6 -12526 -21 -231 -73 -393 -238 -449 -459 -22 -84 -22
-235 -1 -317 59 -224 223 -391 454 -460 55 -17 670 -18 12354 -23 l12296 -5
-462 -1720 -461 -1720 -11839 -5 c-11126 -5 -11843 -6 -11895 -22 -196 -62
-350 -200 -419 -378 -153 -393 90 -812 503 -869 55 -8 3475 -11 11829 -11
l11752 -1 39 -80 c114 -236 340 -457 590 -575 231 -109 517 -148 762 -103 52
9 5687 1516 5757 1539 l27 9 0 -12215 0 -12214 -17375 0 -17375 0 0 24130 0
24130 17375 0 17375 0 0 -5677z m88 -16811 c-7 -2 -461 -124 -1008 -271 l-994
-267 -24 70 c-35 106 -86 209 -148 305 -49 73 -221 251 -1178 1209 -726 727
-1151 1146 -1206 1188 -99 75 -231 146 -345 185 -69 24 -80 30 -77 49 2 20
516 1947 528 1980 3 9 765 -746 2235 -2215 1226 -1227 2224 -2231 2217 -2233z"/>
<path d="M15120 57704 c-217 -46 -401 -219 -470 -439 -28 -91 -31 -251 -6
-344 60 -224 238 -399 461 -456 53 -13 1562 -15 13833 -15 12484 0 13780 1
13835 16 282 73 477 329 477 624 -1 146 -68 314 -169 423 -79 84 -153 133
-261 171 l-85 31 -13775 2 c-11761 1 -13785 -1 -13840 -13z"/>
<path d="M15165 52493 c-168 -22 -333 -128 -433 -278 -182 -271 -126 -645 125
-848 59 -47 160 -100 239 -124 57 -17 548 -18 13769 -21 9405 -2 13741 1
13808 8 174 18 322 95 427 221 92 111 137 225 146 374 20 311 -197 596 -501
660 -61 13 -1779 14 -13810 13 -7557 0 -13753 -3 -13770 -5z"/>
<path d="M15158 33570 c-223 -38 -409 -187 -488 -393 -152 -391 92 -808 505
-867 59 -8 3686 -10 13815 -8 l13735 3 70 23 c275 92 455 334 455 612 0 281
-190 533 -465 617 -58 17 -520 18 -13820 19 -7568 1 -13781 -2 -13807 -6z"/>
<path d="M15164 28840 c-339 -50 -580 -371 -534 -712 34 -249 196 -445 434
-526 l81 -27 13780 0 c11546 0 13789 2 13835 14 179 43 340 171 419 331 181
368 -2 784 -399 908 -52 16 -839 17 -13810 18 -7565 1 -13778 -2 -13806 -6z"/>
<path d="M15158 24109 c-31 -4 -91 -21 -132 -37 -378 -147 -519 -609 -291
-952 77 -115 190 -200 329 -248 l81 -27 13780 0 c11546 0 13789 2 13835 14
179 43 340 171 419 331 181 368 -2 784 -399 908 -52 16 -840 17 -13810 18
-7565 1 -13781 -2 -13812 -7z"/>
<path d="M15145 19375 c-396 -73 -622 -483 -475 -862 67 -174 209 -308 394
-371 l81 -27 13785 0 c13342 0 13787 1 13850 18 275 78 470 334 470 617 0 278
-180 520 -455 612 l-70 23 -13755 2 c-11243 1 -13768 -1 -13825 -12z"/>
</g>
</svg>
